<svg width="140" height="25" viewBox="0 0 140 25" fill="none" xmlns="http://www.w3.org/2000/svg">
<path fill-rule="evenodd" clip-rule="evenodd" d="M28.4108 6.53728C28.4312 6.45385 28.4372 6.37084 28.4326 6.28911C29.1097 6.04913 29.5972 5.40145 29.5972 4.64065C29.5972 3.67515 28.8154 2.89025 27.8545 2.89025C26.8936 2.89025 26.1118 3.67515 26.1118 4.64065C26.1118 5.19072 26.3665 5.681 26.7629 6.00225L24.4628 8.31218C23.8776 8.89966 23.0993 9.2235 22.2716 9.2235C21.2991 9.2235 20.3713 8.75602 19.7893 7.97415L16.0601 2.96251L16.0569 2.95863C16.356 2.64425 16.541 2.21978 16.541 1.75186C16.541 0.786768 15.7593 0.00146484 14.7983 0.00146484C13.8374 0.00146484 13.0557 0.786768 13.0557 1.75186C13.0557 2.23439 13.2511 2.67178 13.5667 2.98831L9.81018 7.98617C9.22795 8.76075 8.30341 9.2235 7.33366 9.2235C6.5136 9.2235 5.71203 8.88804 5.13428 8.30358L2.84857 5.9915C3.23683 5.66982 3.48481 5.18382 3.48481 4.64065C3.48481 3.67515 2.70311 2.89025 1.74216 2.89025C0.781211 2.89025 -0.000488281 3.67515 -0.000488281 4.64065C-0.000488281 5.42252 0.513168 6.08614 1.21945 6.30933C1.21414 6.39319 1.22015 6.47878 1.24124 6.56393L3.06692 13.9242C3.15892 14.2953 3.49095 14.5564 3.87208 14.5564H14.826H14.8303L25.7842 14.5009C26.1632 14.4988 26.493 14.2386 26.5851 13.8696L28.4108 6.53728ZM25.5771 16.3339C26.0354 16.3339 26.4069 16.7072 26.4069 17.1669V19.1668C26.4069 19.6274 26.0354 20.0003 25.5771 20.0003H4.11183C3.65353 20.0003 3.28195 19.6274 3.28195 19.1668V17.1669C3.28195 16.7072 3.65353 16.3339 4.11183 16.3339H25.5771ZM50.1399 16.36H45.6599V4.96H42.2399V19H50.1399V16.36ZM51.7311 10.38C51.3045 11.2467 51.0911 12.2533 51.0911 13.4C51.0911 14.5467 51.3045 15.56 51.7311 16.44C52.1711 17.3067 52.7645 17.98 53.5111 18.46C54.2578 18.9267 55.0845 19.16 55.9911 19.16C56.7778 19.16 57.4645 19 58.0511 18.68C58.6511 18.36 59.1178 17.94 59.4511 17.42V19H62.8711V7.84H59.4511V9.42C59.1311 8.9 58.6711 8.48 58.0711 8.16C57.4845 7.84 56.7978 7.68 56.0111 7.68C55.0911 7.68 54.2578 7.91333 53.5111 8.38C52.7645 8.84667 52.1711 9.51333 51.7311 10.38ZM58.7311 11.4C59.2111 11.8933 59.4511 12.5667 59.4511 13.42C59.4511 14.2733 59.2111 14.9467 58.7311 15.44C58.2645 15.9333 57.6911 16.18 57.0111 16.18C56.3311 16.18 55.7511 15.9333 55.2711 15.44C54.8045 14.9333 54.5711 14.2533 54.5711 13.4C54.5711 12.5467 54.8045 11.88 55.2711 11.4C55.7511 10.9067 56.3311 10.66 57.0111 10.66C57.6911 10.66 58.2645 10.9067 58.7311 11.4ZM75.2654 9C74.492 8.14667 73.452 7.72 72.1453 7.72C71.412 7.72 70.752 7.86667 70.1653 8.16C69.5787 8.44 69.112 8.82667 68.7654 9.32V7.84H65.3453V19H68.7654V12.94C68.7654 12.1933 68.9587 11.6133 69.3453 11.2C69.732 10.7867 70.252 10.58 70.9053 10.58C71.5587 10.58 72.0787 10.7867 72.4653 11.2C72.852 11.6133 73.0453 12.1933 73.0453 12.94V19H76.4454V12.48C76.4454 11 76.052 9.84 75.2654 9ZM78.7819 10.38C78.3552 11.2467 78.1419 12.2533 78.1419 13.4C78.1419 14.5467 78.3552 15.56 78.7819 16.44C79.2219 17.3067 79.8152 17.98 80.5619 18.46C81.3086 18.9267 82.1419 19.16 83.0619 19.16C83.8486 19.16 84.5352 19 85.1219 18.68C85.7219 18.36 86.1819 17.9333 86.5019 17.4V19H89.9219V4.2H86.5019V9.38C86.1552 8.86 85.6752 8.44667 85.0619 8.14C84.4619 7.83333 83.7952 7.68 83.0619 7.68C82.1419 7.68 81.3086 7.91333 80.5619 8.38C79.8152 8.84667 79.2219 9.51333 78.7819 10.38ZM85.7819 11.4C86.2619 11.8933 86.5019 12.5667 86.5019 13.42C86.5019 14.2733 86.2619 14.9467 85.7819 15.44C85.3152 15.9333 84.7419 16.18 84.0619 16.18C83.3819 16.18 82.8019 15.9333 82.3219 15.44C81.8552 14.9333 81.6219 14.2533 81.6219 13.4C81.6219 12.5467 81.8552 11.88 82.3219 11.4C82.8019 10.9067 83.3819 10.66 84.0619 10.66C84.7419 10.66 85.3152 10.9067 85.7819 11.4ZM98.6961 8.16C98.1095 7.84 97.4228 7.68 96.6361 7.68C95.7161 7.68 94.8828 7.91333 94.1361 8.38C93.3895 8.84667 92.7961 9.51333 92.3561 10.38C91.9295 11.2467 91.7161 12.2533 91.7161 13.4C91.7161 14.5467 91.9295 15.56 92.3561 16.44C92.7961 17.3067 93.3895 17.98 94.1361 18.46C94.8828 18.9267 95.7161 19.16 96.6361 19.16C97.4228 19.16 98.1095 19 98.6961 18.68C99.2828 18.3467 99.7428 17.92 100.076 17.4V18.98C100.076 19.8733 99.8628 20.52 99.4361 20.92C99.0228 21.3333 98.4628 21.54 97.7561 21.54C97.1695 21.54 96.6761 21.4133 96.2761 21.16C95.8761 20.92 95.6228 20.5867 95.5161 20.16H92.1361C92.2828 21.4933 92.8695 22.5467 93.8961 23.32C94.9228 24.1067 96.2628 24.5 97.9161 24.5C99.1561 24.5 100.189 24.2533 101.016 23.76C101.856 23.2667 102.476 22.6 102.876 21.76C103.289 20.9333 103.496 20.0067 103.496 18.98V7.84H100.076V9.42C99.7561 8.9 99.2961 8.48 98.6961 8.16ZM99.3561 11.4C99.8361 11.8933 100.076 12.5667 100.076 13.42C100.076 14.2733 99.8361 14.9467 99.3561 15.44C98.8895 15.9333 98.3161 16.18 97.6361 16.18C96.9561 16.18 96.3761 15.9333 95.8961 15.44C95.4295 14.9333 95.1961 14.2533 95.1961 13.4C95.1961 12.5467 95.4295 11.88 95.8961 11.4C96.3761 10.9067 96.9561 10.66 97.6361 10.66C98.3161 10.66 98.8895 10.9067 99.3561 11.4ZM113.57 19H116.99V7.84H113.57V13.9C113.57 14.6467 113.377 15.2267 112.99 15.64C112.604 16.0533 112.077 16.26 111.41 16.26C110.757 16.26 110.237 16.0533 109.85 15.64C109.464 15.2267 109.27 14.6467 109.27 13.9V7.84H105.87V14.36C105.87 15.3333 106.05 16.18 106.41 16.9C106.77 17.62 107.277 18.1733 107.93 18.56C108.584 18.9333 109.337 19.12 110.19 19.12C110.91 19.12 111.564 18.9733 112.15 18.68C112.75 18.3733 113.224 17.9733 113.57 17.48V19ZM124.367 8.26C123.767 8.60667 123.267 9.08667 122.867 9.7V7.84H119.447V19H122.867V13.82C122.867 12.9 123.08 12.26 123.507 11.9C123.934 11.5267 124.574 11.34 125.427 11.34H126.367V7.72C125.634 7.72 124.967 7.9 124.367 8.26ZM135.602 19H139.022V7.84H135.602V13.9C135.602 14.6467 135.408 15.2267 135.022 15.64C134.635 16.0533 134.108 16.26 133.442 16.26C132.788 16.26 132.268 16.0533 131.882 15.64C131.495 15.2267 131.302 14.6467 131.302 13.9V7.84H127.902V14.36C127.902 15.3333 128.082 16.18 128.442 16.9C128.802 17.62 129.308 18.1733 129.962 18.56C130.615 18.9333 131.368 19.12 132.222 19.12C132.942 19.12 133.595 18.9733 134.182 18.68C134.782 18.3733 135.255 17.9733 135.602 17.48V19Z" fill="#02073E"/>
</svg>
